<?xml version="1.0" encoding="UTF-8" standalone="no"?>
<svg
   xmlns:dc="http://purl.org/dc/elements/1.1/"
   xmlns:cc="http://creativecommons.org/ns#"
   xmlns:rdf="http://www.w3.org/1999/02/22-rdf-syntax-ns#"
   xmlns:svg="http://www.w3.org/2000/svg"
   xmlns="http://www.w3.org/2000/svg"
   xmlns:sodipodi="http://sodipodi.sourceforge.net/DTD/sodipodi-0.dtd"
   xmlns:inkscape="http://www.inkscape.org/namespaces/inkscape"
   width="480pt"
   height="480pt"
   viewBox="0 0 480 480"
   version="1.1"
   id="svg11"
   sodipodi:docname="Ivoox.svg"
   inkscape:version="0.92.2 (5c3e80d, 2017-08-06)">
  <metadata
     id="metadata17">
    <rdf:RDF>
      <cc:Work
         rdf:about="">
        <dc:format>image/svg+xml</dc:format>
        <dc:type
           rdf:resource="http://purl.org/dc/dcmitype/StillImage" />
        <dc:title />
      </cc:Work>
    </rdf:RDF>
  </metadata>
  <defs
     id="defs15" />
  <sodipodi:namedview
     pagecolor="#ffffff"
     bordercolor="#666666"
     borderopacity="1"
     objecttolerance="10"
     gridtolerance="10"
     guidetolerance="10"
     inkscape:pageopacity="0"
     inkscape:pageshadow="2"
     inkscape:window-width="1366"
     inkscape:window-height="705"
     id="namedview13"
     showgrid="false"
     inkscape:zoom="0.36875"
     inkscape:cx="27.785051"
     inkscape:cy="320"
     inkscape:window-x="-8"
     inkscape:window-y="-8"
     inkscape:window-maximized="1"
     inkscape:current-layer="svg11" />
  <g
     id="#000000ff" />
  <g
     id="#ff6905ff"
     style="fill:none">
    <path
       fill="#ff6905"
       opacity="1.00"
       d=" M 107.85 42.81 C 145.48 17.47 190.61 3.30 236.00 2.99 C 274.46 2.18 313.07 11.16 347.27 28.75 C 376.80 43.83 403.05 65.25 423.85 91.06 C 456.98 131.99 475.93 184.29 476.01 237.00 C 476.86 284.15 462.80 331.39 436.57 370.55 C 409.40 411.58 369.07 443.70 322.99 461.01 C 309.60 465.68 295.89 469.42 281.98 472.20 C 282.02 376.13 282.02 280.06 282.06 183.99 C 282.17 173.69 276.76 163.23 267.44 158.45 C 262.71 155.94 257.33 154.85 252.00 154.91 C 208.98 154.96 165.96 154.90 122.94 154.94 C 122.93 181.97 122.94 209.00 122.96 236.04 C 147.96 236.06 172.96 236.05 197.96 236.04 C 197.98 314.76 197.99 393.48 198.02 472.21 C 185.22 469.96 172.81 466.08 160.35 462.54 C 102.95 442.50 54.26 399.12 27.42 344.61 C -2.83 284.37 -5.16 211.03 20.81 148.87 C 38.55 105.98 69.24 68.57 107.85 42.81 M 229.35 42.42 C 216.38 44.50 204.54 52.45 197.70 63.65 C 189.24 77.10 188.58 94.98 195.86 109.08 C 203.31 123.94 219.33 134.08 236.00 134.11 C 251.56 134.71 267.01 126.59 275.51 113.57 C 286.27 97.75 285.60 75.22 273.87 60.10 C 263.84 46.49 245.97 39.54 229.35 42.42 Z"
       id="circle"
       style="fill:none"
       inkscape:label="" />
  </g>
  <path
     style="opacity:1;fill:none"
     inkscape:connector-curvature="0"
     id="ivoox1"
     d="m 229.35,42.42 c 16.62,-2.88 34.49,4.07 44.52,17.68 11.73,15.12 12.4,37.65 1.64,53.47 -8.5,13.02 -23.95,21.14 -39.51,20.54 -16.67,-0.03 -32.69,-10.17 -40.14,-25.03 -7.28,-14.1 -6.62,-31.98 1.84,-45.43 6.84,-11.2 18.68,-19.15 31.65,-21.23 z"
     inkscape:label="" />
  <path
     style="opacity:1;fill:none"
     inkscape:connector-curvature="0"
     id="ivoox2"
     d="m 122.94,154.94 c 43.02,-0.04 86.04,0.02 129.06,-0.03 5.33,-0.06 10.71,1.03 15.44,3.54 9.32,4.78 14.73,15.24 14.62,25.54 -0.04,96.07 -0.04,192.14 -0.08,288.21 -27.66,5.08 -56.3,5.07 -83.96,0.01 -0.03,-78.73 -0.04,-157.45 -0.06,-236.17 -25,0.01 -50,0.02 -75,0 -0.02,-27.04 -0.03,-54.07 -0.02,-81.1 z"
     inkscape:label="" />
</svg>
